<?xml version="1.0" encoding="utf-8"?>
<!-- Generator: Adobe Illustrator 26.2.1, SVG Export Plug-In . SVG Version: 6.00 Build 0)  -->
<svg version="1.1" id="Capa_1" xmlns="http://www.w3.org/2000/svg" xmlns:xlink="http://www.w3.org/1999/xlink" x="0px" y="0px"
	 viewBox="0 0 1080 389.33" style="enable-background:new 0 0 1080 389.33;" xml:space="preserve">
<style type="text/css">
	.st0{fill-rule:evenodd;clip-rule:evenodd;fill:#0033A1;}
	.st1{fill:#0033A1;}
	.st2{fill-rule:evenodd;clip-rule:evenodd;fill:#00A1E2;}
</style>
<g>
	<g>
		<rect x="405.93" y="104.61" class="st0" width="45.31" height="180.93"/>
		<polygon class="st0" points="696.39,215.43 751.95,215.38 751.91,170.77 696.35,170.82 696.33,148.09 730,148.06 729.96,104.34 
			650.99,104.41 651.16,285.34 773.89,285.23 773.85,238.09 696.41,238.16 		"/>
		<path class="st0" d="M593.79,180.2c2.16-6.02,3.34-12.51,3.33-19.29c-0.03-31.47-25.56-56.95-57.04-56.93l-56.93,0.05l0.06,67.18
			l0.04,47.62l0.06,67.18l79.71-0.07v-0.85c31.47-0.03,56.96-25.56,56.93-57.03C619.93,207.97,609.5,190.33,593.79,180.2z
			 M528.77,149.62l11.78-0.01c6.51-0.01,11.79,5.26,11.79,11.77c0.01,6.51-5.26,11.79-11.77,11.8l-11.78,0.01L528.77,149.62z
			 M561.68,240.33l-32.83,0.03l-0.02-23.57l32.83-0.03c6.51-0.01,11.79,5.26,11.79,11.77C573.46,235.04,568.19,240.32,561.68,240.33
			z"/>
		<path class="st1" d="M160.16,105.28l0.1,108.54h-0.05c0.04,0.51,0.08,1.01,0.08,1.53c0.01,12.68-10.26,22.98-22.95,22.99
			c-12.68,0.01-22.98-10.26-22.99-22.95c0-0.51,0.04-1.02,0.08-1.53h-0.04l-0.1-108.54l-45.27,0.04l0.1,112.75h0.05
			c0.49,37.26,30.85,67.3,68.22,67.27c37.37-0.03,67.68-30.13,68.1-67.39h0.05l-0.1-112.75L160.16,105.28z"/>
		<polygon class="st1" points="373.84,104.99 327.91,105.03 327.98,186.31 237.4,79.64 237.43,105.11 237.47,150.69 237.59,286.04 
			283.53,285.99 283.45,204.84 373.37,310.73 373.99,310.21 373.96,285.87 374.01,285.91 		"/>
	</g>
	<g>
		<rect x="855.33" y="171.72" class="st0" width="46.17" height="46.17"/>
		<rect x="905.76" y="222.05" class="st2" width="46.17" height="46.17"/>
		<polygon class="st0" points="1010.99,195.51 978.36,228.19 945.69,195.58 978.32,162.9 		"/>
		
			<rect x="855.91" y="271.99" transform="matrix(0.7064 -0.7078 0.7078 0.7064 49.1939 708.754)" class="st2" width="46.17" height="46.16"/>
		
			<rect x="853.78" y="71.17" transform="matrix(0.7065 -0.7078 0.7078 0.7065 190.6856 648.2732)" class="st0" width="46.17" height="46.17"/>
		<polygon class="st2" points="804.31,166.95 804.26,120.78 850.44,120.74 850.47,166.91 		"/>
		<path class="st0" d="M828.59,271.63c-14.85,0.02-26.9-12.02-26.92-26.87c-0.01-14.85,12.02-26.9,26.87-26.92
			c14.85-0.01,26.9,12.02,26.92,26.87C855.48,259.57,843.45,271.62,828.59,271.63z"/>
		<path class="st2" d="M927.94,172.1c-14.85,0.01-26.9-12.02-26.92-26.87c-0.01-14.85,12.01-26.9,26.87-26.92
			c14.85-0.01,26.9,12.01,26.92,26.87C954.82,160.04,942.8,172.09,927.94,172.1z"/>
	</g>
</g>
</svg>
